<svg width="23" height="24" viewBox="0 0 23 24" fill="none" xmlns="http://www.w3.org/2000/svg">
<path d="M7.03725 17.788L5.64924 16.4C5.26742 16.0182 5.13266 15.4657 5.30336 14.9537C5.43811 14.5539 5.61779 14.0328 5.83341 13.4354H1.08092C0.694612 13.4354 0.335256 13.2288 0.142102 12.8919C-0.0510524 12.555 -0.0465605 12.1418 0.151085 11.8094L2.50936 7.83409C3.09331 6.85037 4.14892 6.24846 5.28988 6.24846H8.98676C9.09457 6.06879 9.20237 5.90259 9.31018 5.74089C12.9891 0.314737 18.4693 0.135063 21.7394 0.736971C22.2605 0.831299 22.6648 1.24006 22.7636 1.76111C23.3655 5.03567 23.1813 10.5112 17.7595 14.19C17.6023 14.2978 17.4316 14.4057 17.252 14.5135V18.2102C17.252 19.3512 16.65 20.4113 15.6663 20.9907L11.6909 23.3489C11.3585 23.5466 10.9453 23.5511 10.6084 23.3579C10.2715 23.1648 10.0648 22.8099 10.0648 22.4191V17.6038C9.43146 17.8239 8.87895 18.0036 8.4612 18.1384C7.9581 18.3001 7.41008 18.1608 7.03276 17.788H7.03725ZM17.252 8.0452C17.7285 8.0452 18.1855 7.8559 18.5225 7.51895C18.8594 7.182 19.0487 6.72499 19.0487 6.24846C19.0487 5.77194 18.8594 5.31493 18.5225 4.97798C18.1855 4.64102 17.7285 4.45173 17.252 4.45173C16.7754 4.45173 16.3184 4.64102 15.9814 4.97798C15.6445 5.31493 15.4552 5.77194 15.4552 6.24846C15.4552 6.72499 15.6445 7.182 15.9814 7.51895C16.3184 7.8559 16.7754 8.0452 17.252 8.0452Z" fill="black"/>
<path d="M7.03725 17.788L5.64924 16.4C5.26742 16.0182 5.13266 15.4657 5.30336 14.9537C5.43811 14.5539 5.61779 14.0328 5.83341 13.4354H1.08092C0.694612 13.4354 0.335256 13.2288 0.142102 12.8919C-0.0510524 12.555 -0.0465605 12.1418 0.151085 11.8094L2.50936 7.83409C3.09331 6.85037 4.14892 6.24846 5.28988 6.24846H8.98676C9.09457 6.06879 9.20237 5.90259 9.31018 5.74089C12.9891 0.314737 18.4693 0.135063 21.7394 0.736971C22.2605 0.831299 22.6648 1.24006 22.7636 1.76111C23.3655 5.03567 23.1813 10.5112 17.7595 14.19C17.6023 14.2978 17.4316 14.4057 17.252 14.5135V18.2102C17.252 19.3512 16.65 20.4113 15.6663 20.9907L11.6909 23.3489C11.3585 23.5466 10.9453 23.5511 10.6084 23.3579C10.2715 23.1648 10.0648 22.8099 10.0648 22.4191V17.6038C9.43146 17.8239 8.87895 18.0036 8.4612 18.1384C7.9581 18.3001 7.41008 18.1608 7.03276 17.788H7.03725ZM17.252 8.0452C17.7285 8.0452 18.1855 7.8559 18.5225 7.51895C18.8594 7.182 19.0487 6.72499 19.0487 6.24846C19.0487 5.77194 18.8594 5.31493 18.5225 4.97798C18.1855 4.64102 17.7285 4.45173 17.252 4.45173C16.7754 4.45173 16.3184 4.64102 15.9814 4.97798C15.6445 5.31493 15.4552 5.77194 15.4552 6.24846C15.4552 6.72499 15.6445 7.182 15.9814 7.51895C16.3184 7.8559 16.7754 8.0452 17.252 8.0452Z" fill="url(#paint0_linear_1_1647)"/>
<path d="M7.03725 17.788L5.64924 16.4C5.26742 16.0182 5.13266 15.4657 5.30336 14.9537C5.43811 14.5539 5.61779 14.0328 5.83341 13.4354H1.08092C0.694612 13.4354 0.335256 13.2288 0.142102 12.8919C-0.0510524 12.555 -0.0465605 12.1418 0.151085 11.8094L2.50936 7.83409C3.09331 6.85037 4.14892 6.24846 5.28988 6.24846H8.98676C9.09457 6.06879 9.20237 5.90259 9.31018 5.74089C12.9891 0.314737 18.4693 0.135063 21.7394 0.736971C22.2605 0.831299 22.6648 1.24006 22.7636 1.76111C23.3655 5.03567 23.1813 10.5112 17.7595 14.19C17.6023 14.2978 17.4316 14.4057 17.252 14.5135V18.2102C17.252 19.3512 16.65 20.4113 15.6663 20.9907L11.6909 23.3489C11.3585 23.5466 10.9453 23.5511 10.6084 23.3579C10.2715 23.1648 10.0648 22.8099 10.0648 22.4191V17.6038C9.43146 17.8239 8.87895 18.0036 8.4612 18.1384C7.9581 18.3001 7.41008 18.1608 7.03276 17.788H7.03725ZM17.252 8.0452C17.7285 8.0452 18.1855 7.8559 18.5225 7.51895C18.8594 7.182 19.0487 6.72499 19.0487 6.24846C19.0487 5.77194 18.8594 5.31493 18.5225 4.97798C18.1855 4.64102 17.7285 4.45173 17.252 4.45173C16.7754 4.45173 16.3184 4.64102 15.9814 4.97798C15.6445 5.31493 15.4552 5.77194 15.4552 6.24846C15.4552 6.72499 15.6445 7.182 15.9814 7.51895C16.3184 7.8559 16.7754 8.0452 17.252 8.0452Z" fill="url(#paint1_linear_1_1647)"/>
<defs>
<linearGradient id="paint0_linear_1_1647" x1="0" y1="12" x2="23" y2="12" gradientUnits="userSpaceOnUse">
<stop stop-color="#FFC700"/>
<stop offset="1" stop-color="#F54646"/>
</linearGradient>
<linearGradient id="paint1_linear_1_1647" x1="3.91863" y1="2.80535" x2="18.8276" y2="20.7098" gradientUnits="userSpaceOnUse">
<stop stop-color="#3093EE"/>
<stop offset="1" stop-color="#531ACB"/>
</linearGradient>
</defs>
</svg>
