<svg id="Слой_1" data-name="Слой 1" xmlns="http://www.w3.org/2000/svg" viewBox="0 0 1426.81 373.7">
  <defs>
    <style>
      .cls-1 {
        fill: #626b7c;
      }
    </style>
  </defs>
  <g>
    <path class="cls-1" d="M96,11.63.92,290.38H56.55l26.91-81.33h77.22l27.64,81.33H245.4L150.31,11.63Zm51.64,151.69h-50l20.76-61.42c1.33-4.23,2.78-8.33,4-12.07,1.45,4.22,2.66,8.57,4.35,12.79Z" transform="translate(-0.92 -2)"/>
    <path class="cls-1" d="M339.76,163.32c-25.7-10.26-28.48-15-28.48-22.33,0-9.29,7.85-15.32,20.4-15.32a62.72,62.72,0,0,1,32.58,9.53l11,6.88,14.48-44.17-6.4-4.34a96.53,96.53,0,0,0-50.92-13c-43,0-74.21,27.15-74.21,64.68,0,34.51,30.53,52.85,56.11,62s27.63,16.17,27.63,24.14c0,15.32-16.17,17.61-25.46,17.61a87.59,87.59,0,0,1-39.7-12.06l-11-6.52-14.24,45.25,6.88,4a115.18,115.18,0,0,0,57.32,14.6c47.3,0,79.28-26.66,79.28-66.12S363.29,172.49,339.76,163.32Z" transform="translate(-0.92 -2)"/>
    <path class="cls-1" d="M478.89,36.61,425.68,52.78v32h-28.6v45.86h28.84v91.1a82.49,82.49,0,0,0,15.69,55.63A57.89,57.89,0,0,0,485.29,295a100.78,100.78,0,0,0,33.3-5.31l7.12-2.53-2.77-46.22-12.07,3.86a57.76,57.76,0,0,1-16.65,1.93c-6.4,0-15.21,0-15.21-25.94V130.62h48.27V84.76H478.89Z" transform="translate(-0.92 -2)"/>
    <path class="cls-1" d="M656.76,82.83l-9.65-1.21a56.33,56.33,0,0,0-9.53-.72A61.43,61.43,0,0,0,593.29,100V84.76H542.85l.72,10.62c1,15.69,1.69,34,1.69,57.32V290.62h54.3V182a117,117,0,0,1,1-14.12c4.1-21.36,17.38-34.63,35.24-34.63a49.71,49.71,0,0,1,9.29,0l12.06,2.53v-53Z" transform="translate(-0.92 -2)"/>
    <path class="cls-1" d="M755.23,80.9C694.89,80.9,653,125.43,653,189.5c0,62,40.67,105.59,99,105.59,49.48,0,102.45-34,102.45-108.6C854.9,124.22,814,80.9,755.23,80.9Zm45,106.55c0,36.2-19.55,62-46.22,62s-45.85-25.83-45.85-61.31c0-22.8,10-61.66,46.82-61.66S800.24,166.09,800.24,187.45Z" transform="translate(-0.92 -2)"/>
    <path class="cls-1" d="M1031.81,33.84C1014,17.91,987.4,9.7,952.65,9.7A389.17,389.17,0,0,0,887,14.89l-8.32,1.45V290.62h53.45v-102c5.55,0,11.23.72,16.66.72a118,118,0,0,0,86.4-31.49,85.11,85.11,0,0,0,22.92-62.27A81.55,81.55,0,0,0,1031.81,33.84Zm-27.52,63.47c0,39-34.27,44.65-54.78,44.65a150.32,150.32,0,0,1-17.62-.85V57.37a169.36,169.36,0,0,1,21.48-1C976.66,56.64,1004.29,63.76,1004.29,97.31Z" transform="translate(-0.92 -2)"/>
    <path class="cls-1" d="M1222.11,235.72V166.45c0-55.38-28.84-85.55-80.61-85.55a132.61,132.61,0,0,0-66.85,17.62l-6.64,4.22,14.48,42.84,11.22-7.6a79.26,79.26,0,0,1,43.2-12.07,31.42,31.42,0,0,1,24.14,7.72,30.5,30.5,0,0,1,7.84,18.71c-42,1.2-72.4,12.06-91.47,30a66,66,0,0,0-19.31,49,63.12,63.12,0,0,0,62.52,63.7c1.44,0,2.89,0,4.34-.11a82.32,82.32,0,0,0,50.19-16.65l1.33,12.06h50.56l-1.69-12.06A205.55,205.55,0,0,1,1222.11,235.72Zm-89.9,13.76a19.69,19.69,0,0,1-21.55-17.6,19.26,19.26,0,0,1,.07-4.49,24.12,24.12,0,0,1,7-17.86c6.39-6.15,20.15-13.27,51.52-14v22.08a34.77,34.77,0,0,1-1,7.6,37.17,37.17,0,0,1-36.08,24.5Z" transform="translate(-0.92 -2)"/>
    <path class="cls-1" d="M1370.53,84.64l-39.1,115.84c-1,2.9-1.81,6-2.77,8.81-1-2.77-1.93-5.67-3.14-8.32l-42.6-116.33H1224l73.61,184.87h0a13.66,13.66,0,0,1,1.68,4.22c0,1-1.2,2.9-1.68,4.1a100.41,100.41,0,0,1-25.35,34h0a77.29,77.29,0,0,1-26.18,14.6l-9.53,3,13.75,46.22,8.81-1.69a103.43,103.43,0,0,0,46.46-24.14c26.06-23,43.44-60.33,66.25-120.67l55.87-146Z" transform="translate(-0.92 -2)"/>
    <path class="cls-1" d="M198.09,88.5C232.73,53,291.73,31.91,355.69,31.91a266.64,266.64,0,0,1,72.4,9.53H430l41.15-12.07-18.58-6.88A331.81,331.81,0,0,0,335.9,2.1,300.44,300.44,0,0,0,177.22,42.65l-4.47,2.77L190.13,96.1Z" transform="translate(-0.92 -2)"/>
  </g>
</svg>
