<svg id="Слой_1" data-name="Слой 1" xmlns="http://www.w3.org/2000/svg" viewBox="0 0 1184.68 371.99">
  <defs>
    <style>
      .cls-1 {
        fill: #626b7c;
      }
    </style>
  </defs>
  <g>
    <path class="cls-1" d="M148.25,102A44.08,44.08,0,0,0,175.8,56.76c0-22.87-14.05-55.1-68.06-55.1H0V222.09H93.68c45.19,0,57-7.71,69.71-20.11a64.18,64.18,0,0,0,19-45.47A51.27,51.27,0,0,0,148.25,102ZM44.37,38.3h52.9c20.94,0,33.89,5.51,33.89,23.7S116.83,86.52,98.68,86.52H43.54ZM100.85,183H45.74V124h57.32c16.81,0,33.34,7.44,33.34,27.55S124.83,183,100.85,183Z"/>
    <polygon class="cls-1" points="0 255.98 0 276.1 34.17 276.1 34.17 368.95 57.86 368.95 57.86 276.1 92.03 276.1 92.03 255.98 0 255.98"/>
    <polygon class="cls-1" points="760.23 90.65 850.33 0 790.81 0 706.5 89.83 706.5 0 660.21 0 660.21 220.99 706.5 220.99 706.5 146.04 727.99 124 796.33 220.99 855.57 220.99 760.23 90.65"/>
    <path class="cls-1" d="M327.68,0H274.45L195.92,220.44h48.49L259.84,175h81.29l14.33,45.47h49.87ZM272.52,137.77l27.55-87.34h0l27.61,87.34Z"/>
    <path class="cls-1" d="M195.92,344.43c0-21.21-5.24-24.8-14.33-27.55A27.57,27.57,0,0,0,199,289.32a31.69,31.69,0,0,0-29.74-33.52,31.34,31.34,0,0,0-5.81.18H106.09V369h23.42V324.59h24.25c17.63,0,18.46,6.07,18.46,21.5A82.72,82.72,0,0,0,174.68,369h27.55v-3C195.92,364,195.92,359.86,195.92,344.43Zm-38.86-38.57H129.51V275.55h29.17c14,0,16.53,8.54,16.53,14.6C175.25,301.45,169.46,305.86,157.06,305.86Z"/>
    <polygon class="cls-1" points="629.9 276.1 629.9 255.98 549.44 255.98 549.44 368.95 573.13 368.95 573.13 321.56 623.01 321.56 623.01 301.45 573.13 301.45 573.13 276.1 629.9 276.1"/>
    <polygon class="cls-1" points="669.02 348.84 669.02 319.91 724.13 319.91 724.13 299.79 669.02 299.79 669.02 276.1 729.09 276.1 729.09 255.98 645.88 255.98 645.88 368.95 731.57 368.95 731.57 348.84 669.02 348.84"/>
    <path class="cls-1" d="M502.05,304.48l-27.56-6.61c-4.68,0-11.85-3-11.85-11.85s10.75-13.5,19.57-13.5c20.66,0,22.59,11.84,23.14,16.8H528c0-13.77-9.37-36.37-44.09-36.37S440.6,275,440.6,287.67c0,24.8,17.64,27.56,35.82,33.34l12.13,2.76c11.84,3,20.39,5.23,20.39,14.05s-12.4,14.6-23.43,14.6c-20.66,0-24-11.84-24.24-18.18H438.68c0,14,7.17,37.75,48.5,37.75,9.92,0,44.36-3,44.36-36.93C531.53,314.67,517.48,308.34,502.05,304.48Z"/>
    <path class="cls-1" d="M841.24,344.43c0-21.21-5-24.8-14.33-27.55a27.55,27.55,0,0,0,17.64-27.56,31.68,31.68,0,0,0-31.17-32.19,32.06,32.06,0,0,0-4.38.23H751.14v113h23.15V324.59h24.52c17.36,0,18.46,6.07,18.46,21.5A73.23,73.23,0,0,0,819.75,369H847.3v-3C841.24,364,841.24,359.86,841.24,344.43Zm-38.56-37.75H775.11V275.55H804.6c13.77,0,16.53,8.54,16.53,14.6-.83,11.3-7.44,15.71-19,15.71Z"/>
    <polygon class="cls-1" points="569.55 0.28 569.55 154.03 569 154.03 481.38 0.28 432.88 0.28 432.88 220.99 475.87 220.99 475.87 63.65 476.42 63.65 566.52 220.99 612.54 220.99 612.54 0.28 569.55 0.28"/>
    <path class="cls-1" d="M275.55,256H248l-40.5,113h24.8l8.54-24.53h41.61l7.44,23.42H315.5ZM248,326.25l14.61-44.92h0l14.33,44.92Z"/>
    <polygon class="cls-1" points="399.54 255.98 399.54 334.51 399.26 334.51 354.35 255.98 329.55 255.98 329.55 368.95 351.6 368.95 351.6 288.22 351.87 288.22 397.89 368.95 421.58 368.95 421.58 255.98 399.54 255.98"/>
  </g>
  <g>
    <path class="cls-1" d="M1138.76,59.69a207.76,207.76,0,0,0-36.19-34.49,161.77,161.77,0,0,0-21.16-14,131.84,131.84,0,0,0-26.88-11,126.85,126.85,0,0,0,3.15,28,141.38,141.38,0,0,0,7.83,24.33c-7.62,2.33-16.72,5.29-26.88,9.31-6.56,3-14,5.51-21.16,9.53a224,224,0,0,0-22.64,12.69,247.23,247.23,0,0,0-43,35.77,157.9,157.9,0,0,0-17.28,22.37c-2.33,4-5.3,7.62-7.2,11.64l-5.67,12.29a114.14,114.14,0,0,0-7.62,24.55,92.18,92.18,0,0,0-4.45,21.16,119.37,119.37,0,0,0-1.69,18.2v26s0-4.23,2.12-11.85c0-3.81,1.48-8.25,2.54-13.54a148.14,148.14,0,0,1,5.29-16.72,94.44,94.44,0,0,1,8.25-18.62,101.39,101.39,0,0,1,11.56-19.23l7-9.1a105.77,105.77,0,0,1,8.47-8.47A118.77,118.77,0,0,1,973,142.43a198.89,198.89,0,0,1,21.18-12.23c7.41-3,14-6.56,21.16-8.89a160.6,160.6,0,0,1,21.17-6.14c6.56-1.9,13.12-2.75,18.83-4l10.37-1.27a14.34,14.34,0,0,0-1.06,2.75,183.2,183.2,0,0,0-7.83,29c0,5.07-1.48,10.36-2.11,15.66a111.12,111.12,0,0,0,0,16.92A100.82,100.82,0,0,0,1070,167c4.66-2.54,9.1-5.5,13.33-8.25a174.94,174.94,0,0,0,23.28-19,218.61,218.61,0,0,0,33.65-45.07l1.27-2.12A28.37,28.37,0,0,0,1138.76,59.69Z"/>
    <path class="cls-1" d="M1184.68,120V107.94a55.93,55.93,0,0,1-1.9,12.06c0,3.6-1.27,8.25-2.12,13.54a139,139,0,0,1-4.87,16.72,82.07,82.07,0,0,1-7.4,19.05,100.76,100.76,0,0,1-11.22,19.47l-6.77,9.52c-2.33,3-5.29,5.71-8,8.68a128.69,128.69,0,0,1-18,15.87,230,230,0,0,1-19.89,12.91q-10.35,5.18-21.17,9.31a154.21,154.21,0,0,1-21.16,7c-6.56,2.12-12.91,3.18-18.62,4.44l-10.37,1.7a16.7,16.7,0,0,1,0-3,209.36,209.36,0,0,0,7-29.21c0-5.08,1.06-10.37,1.48-15.66a111.09,111.09,0,0,0,0-16.72,98.59,98.59,0,0,0-15,7.41c-4.66,3-8.89,5.71-13.12,8.89a156.51,156.51,0,0,0-22.64,19.68,218.62,218.62,0,0,0-34.29,45.71l-1,1.9a28.81,28.81,0,0,0,3.59,33,216.26,216.26,0,0,0,37.25,33.22,164,164,0,0,0,22.43,13.33,118.83,118.83,0,0,0,26.45,10.16,142.26,142.26,0,0,0-4.86-28.15,168.58,168.58,0,0,0-8.8-23.87c7.62-2.54,16.51-5.71,26.66-10.16a207.46,207.46,0,0,0,21.16-10.15,224.84,224.84,0,0,0,21.18-13.34,267.45,267.45,0,0,0,22.22-16.71,228.43,228.43,0,0,0,20.1-21.17,157.61,157.61,0,0,0,16.68-22.85c2.33-4,4.87-7.83,6.77-11.85s3.6-8.47,5.29-12.49a118,118,0,0,0,7.62-23.7,106,106,0,0,0,3.39-21.16,144.26,144.26,0,0,0,1.9-17.35Z"/>
  </g>
</svg>
