<svg id="Слой_1" data-name="Слой 1" xmlns="http://www.w3.org/2000/svg" viewBox="0 0 368.37 368.91">
  <defs>
    <style>
      .cls-1 {
        fill: #626b7c;
      }

      .cls-2 {
        fill: #fff;
      }
    </style>
  </defs>
  <g>
    <path class="cls-1" d="M378.61,231.07a181.48,181.48,0,0,1-219.4,135.44,184.19,184.19,0,1,1,219.4-135.44Z" transform="translate(-15.63 -2.66)"/>
    <path class="cls-2" d="M283.81,160.65c2.71-24.38-16.25-35.21-40.63-46.05l8.13-32.5-21.67-5.42-5.42,32.51H208l8.13-32.51-21.67-5.41-8.13,32.5H172.76l-27.09-8.13-5.42,21.67,16.26,5.42c8.12,0,8.12,5.42,8.12,10.83l-8.12,37.92L143,223c-2.71,2.71-5.41,8.12-10.83,5.42H118.59L107.75,250l27.09,8.13h13.54l-8.13,32.5,21.67,5.42,8.13-32.5L183.59,269l-8.12,27.08,21.66,5.42,8.13-35.21c35.21,8.12,59.59,5.41,70.42-27.09a35.2,35.2,0,0,0-19-48.75,32.5,32.5,0,0,0,27.09-29.8Zm-46.05,65c-8.12,24.37-48.75,10.83-62.29,8.12l10.83-43.33C199.84,193.15,243.18,201.28,237.76,225.66Zm5.42-65c-5.42,24.38-40.63,10.83-51.46,8.13l10.83-37.92C213.39,133.56,248.6,139,243.18,160.65Z" transform="translate(-15.63 -2.66)"/>
  </g>
</svg>
