<svg id="Слой_1" data-name="Слой 1" xmlns="http://www.w3.org/2000/svg" xmlns:xlink="http://www.w3.org/1999/xlink" viewBox="0 0 816.47 364.9">
  <defs>
    <style>
      .cls-1 {
        fill: none;
      }

      .cls-2 {
        clip-path: url(#clip-path);
      }

      .cls-3, .cls-5 {
        fill: #626b7c;
      }

      .cls-3, .cls-4 {
        fill-rule: evenodd;
      }

      .cls-4 {
        fill: #1a2338;
      }
    </style>
    <clipPath id="clip-path">
      <rect class="cls-1" width="816.38" height="364.9"/>
    </clipPath>
  </defs>
  <g class="cls-2">
    <g>
      <path class="cls-3" d="M56.1,0H95.33V364.17H56.1Z"/>
      <path class="cls-3" d="M107.1,0h12.22V364.17H107.1Z"/>
      <path class="cls-3" d="M130.09,0h21.62V364.17H130.09Z"/>
      <path class="cls-3" d="M172.14,0h12.13V364.17H172.14Z"/>
      <path class="cls-3" d="M189.2,0h9.12V364.17H189.2Z"/>
      <path class="cls-3" d="M25.82,0h13V364.17h-13Z"/>
      <path class="cls-3" d="M0,0H21.62V364.17H0Z"/>
      <path class="cls-3" d="M263.09,0h39.14V364.17H263.09Z"/>
      <path class="cls-3" d="M314.36,0H326V364.17H313.81Z"/>
      <path class="cls-3" d="M336.89,0h21.53V364.17H336.89Z"/>
      <path class="cls-3" d="M379.22,0H391V364.17H379.22Z"/>
      <path class="cls-3" d="M396.56,0h9.12V364.17h-9.12Z"/>
      <path class="cls-3" d="M233.54,0h12.13V364.17H233.54Z"/>
      <path class="cls-3" d="M207.42,0h21.52V364.17H207.42Z"/>
      <path class="cls-3" d="M421.1,0h21.8V364.17H421.1Z"/>
      <path class="cls-3" d="M463.79,0h12.13V364.17H463.79Z"/>
      <path class="cls-3" d="M481.12,0h9.13V364.17h-9.13Z"/>
      <path class="cls-3" d="M524.82,0H537V364.17H524.82Z"/>
      <path class="cls-3" d="M498.55,0h21.71V364.17H498.55Z"/>
      <path class="cls-3" d="M553,0h12V364.17H553Z"/>
      <path class="cls-3" d="M570.16,0h9.12V364.17h-9.12Z"/>
      <path class="cls-3" d="M614.42,0h12V364.17h-12Z"/>
      <path class="cls-3" d="M587.77,0H609.3V364.17H587.77Z"/>
      <path class="cls-3" d="M636.94,0h39.13V364.17H636.94Z"/>
      <path class="cls-3" d="M688,0h12V364.17H688Z"/>
      <path class="cls-3" d="M710.56,0h21.62V364.17H710.56Z"/>
      <path class="cls-3" d="M752.88,0H765V364.17H752.88Z"/>
      <path class="cls-3" d="M770.22,0h9.12V364.17h-9.12Z"/>
      <path class="cls-3" d="M794.94,0h21.53V364.17H794.94Z"/>
      <path class="cls-4" d="M44.06,364.9H789.28V160.83H44.06Z"/>
      <path class="cls-5" d="M58,358.61V267.38H92.14a41.9,41.9,0,0,1,16.69,2.83,20.57,20.57,0,0,1,9.76,8.48,22.75,22.75,0,0,1,3.65,12,21.14,21.14,0,0,1-3.1,10.94,23.33,23.33,0,0,1-9.58,8.3,25.13,25.13,0,0,1,13,8.21,24,24,0,0,1,4.47,14A26.79,26.79,0,0,1,124.29,344a23.42,23.42,0,0,1-6.93,8.49A29.35,29.35,0,0,1,107.5,357a67.34,67.34,0,0,1-14.78,1.55Zm12.59-52.18H90.13a43.24,43.24,0,0,0,11.4-1,12.76,12.76,0,0,0,7-5.65,13.58,13.58,0,0,0,2.28-7.94,14.35,14.35,0,0,0-2.1-7.94,11,11,0,0,0-6.3-4.74,47.53,47.53,0,0,0-13.86-1.28h-18Zm0,41.69H93.05a62.48,62.48,0,0,0,8.21,0,19.6,19.6,0,0,0,7-2.47,13.92,13.92,0,0,0,4.66-5.1,16.06,16.06,0,0,0,1.73-7.67,15.09,15.09,0,0,0-2.65-9.12,12.23,12.23,0,0,0-6.93-5.2,45.65,45.65,0,0,0-13-1.64H70.61Z"/>
      <path class="cls-5" d="M137.48,325.86a33.92,33.92,0,0,1,10.3-27.37,31,31,0,0,1,20.8-7.3,30.3,30.3,0,0,1,22.08,9.13,33.55,33.55,0,0,1,9.12,24.26,43.3,43.3,0,0,1-3.83,20A27.31,27.31,0,0,1,184.42,356a34.34,34.34,0,0,1-15.88,4,30.31,30.31,0,0,1-22.35-9.13,35.18,35.18,0,0,1-8.48-26.09Zm11.49,0a27.41,27.41,0,0,0,5.47,18.7,18.26,18.26,0,0,0,25.64,2.1,13.57,13.57,0,0,0,1.91-2.1,28.63,28.63,0,0,0,5.57-18.7,27.38,27.38,0,0,0-5.38-19.07,18.54,18.54,0,0,0-27.83,0A28.1,28.1,0,0,0,149,325.86Z"/>
      <path class="cls-5" d="M212.1,358.61V267.38h11.13v91.23Z"/>
      <path class="cls-5" d="M285.42,337.54l11.41,1.55a27.36,27.36,0,0,1-9.95,15.69,31.54,31.54,0,0,1-18.79,5.56,30.13,30.13,0,0,1-22.81-9.12A34.27,34.27,0,0,1,236.82,326a36.52,36.52,0,0,1,8.48-26.09,28.89,28.89,0,0,1,22.12-9.17A28.24,28.24,0,0,1,289,299.86a35.83,35.83,0,0,1,8.39,26.27v2.28H247.58a26.68,26.68,0,0,0,6.12,16.7,19,19,0,0,0,14,5.74,18.17,18.17,0,0,0,10.4-3.28,22.81,22.81,0,0,0,6.94-10Zm-36.49-18.25h36.49a22.64,22.64,0,0,0-4.28-12.41,18.26,18.26,0,0,0-25.72-2.26l-.29.26-.82.82a20.76,20.76,0,0,0-5.57,13.59Z"/>
      <path class="cls-5" d="M335.16,348.66l1.64,9.77a45,45,0,0,1-8.48,1.09,19.45,19.45,0,0,1-9.12-2,10.9,10.9,0,0,1-4.75-5,42.17,42.17,0,0,1-1.27-13.14V301.05H305v-8.58h8.12v-16l11.22-7v23h10.85v9.12H324v39.14a17.42,17.42,0,0,0,0,6.11A4.08,4.08,0,0,0,326,349a6.68,6.68,0,0,0,3.74.82h4.83Z"/>
      <path class="cls-5" d="M342.09,325.86a33.68,33.68,0,0,1,9.77-27.37,31.11,31.11,0,0,1,20.89-7.3A30.37,30.37,0,0,1,395,300.32a33.66,33.66,0,0,1,9.12,24.44,41.74,41.74,0,0,1-3.92,19.89,26.35,26.35,0,0,1-11.41,11.77,33.18,33.18,0,0,1-15.87,4,29.92,29.92,0,0,1-22.26-9.12,34.52,34.52,0,0,1-8.48-26.09Zm11.41,0a26.44,26.44,0,0,0,5.56,18.7A17.47,17.47,0,0,0,372.93,351a17.72,17.72,0,0,0,13.87-6.48,28.15,28.15,0,0,0,5.47-18.7,27.37,27.37,0,0,0-5.57-18.25A18.23,18.23,0,0,0,361,305.66l0,0-.08.07h0a7.33,7.33,0,0,0-1.74,1.64,27.33,27.33,0,0,0-5.73,18.47Z"/>
    </g>
  </g>
</svg>
