<svg width="24" height="24" viewBox="0 0 24 24" fill="none" xmlns="http://www.w3.org/2000/svg">
<g clip-path="url(#clip0_1_1654)">
<path d="M16.1719 2.25645L22.1625 8.06484C24.6188 10.4457 24.6188 14.273 22.1625 16.6539L16.9125 21.7436C16.4766 22.1658 15.7641 22.1703 15.3234 21.7525C14.8828 21.3348 14.8781 20.652 15.3141 20.2297L20.5594 15.14C22.1484 13.5992 22.1484 11.124 20.5594 9.5832L14.5734 3.7748C14.1375 3.35254 14.1422 2.66973 14.5828 2.25195C15.0234 1.83418 15.7359 1.83867 16.1719 2.26094V2.25645ZM0 10.8096V4.09375C0 2.90332 1.00781 1.9375 2.25 1.9375H9.25781C10.0547 1.9375 10.8188 2.23848 11.3813 2.77754L19.2563 10.3244C20.4281 11.4475 20.4281 13.2668 19.2563 14.3898L12.9984 20.3869C11.8266 21.51 9.92813 21.51 8.75625 20.3869L0.88125 12.84C0.314062 12.301 0 11.5732 0 10.8096ZM6.75 6.96875C6.75 6.5875 6.59197 6.22187 6.31066 5.95228C6.02936 5.6827 5.64783 5.53125 5.25 5.53125C4.85218 5.53125 4.47064 5.6827 4.18934 5.95228C3.90804 6.22187 3.75 6.5875 3.75 6.96875C3.75 7.35 3.90804 7.71563 4.18934 7.98522C4.47064 8.2548 4.85218 8.40625 5.25 8.40625C5.64783 8.40625 6.02936 8.2548 6.31066 7.98522C6.59197 7.71563 6.75 7.35 6.75 6.96875Z" fill="url(#paint0_linear_1_1654)"/>
<path d="M16.1719 2.25645L22.1625 8.06484C24.6188 10.4457 24.6188 14.273 22.1625 16.6539L16.9125 21.7436C16.4766 22.1658 15.7641 22.1703 15.3234 21.7525C14.8828 21.3348 14.8781 20.652 15.3141 20.2297L20.5594 15.14C22.1484 13.5992 22.1484 11.124 20.5594 9.5832L14.5734 3.7748C14.1375 3.35254 14.1422 2.66973 14.5828 2.25195C15.0234 1.83418 15.7359 1.83867 16.1719 2.26094V2.25645ZM0 10.8096V4.09375C0 2.90332 1.00781 1.9375 2.25 1.9375H9.25781C10.0547 1.9375 10.8188 2.23848 11.3813 2.77754L19.2563 10.3244C20.4281 11.4475 20.4281 13.2668 19.2563 14.3898L12.9984 20.3869C11.8266 21.51 9.92813 21.51 8.75625 20.3869L0.88125 12.84C0.314062 12.301 0 11.5732 0 10.8096ZM6.75 6.96875C6.75 6.5875 6.59197 6.22187 6.31066 5.95228C6.02936 5.6827 5.64783 5.53125 5.25 5.53125C4.85218 5.53125 4.47064 5.6827 4.18934 5.95228C3.90804 6.22187 3.75 6.5875 3.75 6.96875C3.75 7.35 3.90804 7.71563 4.18934 7.98522C4.47064 8.2548 4.85218 8.40625 5.25 8.40625C5.64783 8.40625 6.02936 8.2548 6.31066 7.98522C6.59197 7.71563 6.75 7.35 6.75 6.96875Z" fill="url(#paint1_linear_1_1654)"/>
</g>
<defs>
<linearGradient id="paint0_linear_1_1654" x1="0" y1="12.0003" x2="24.0047" y2="12.0003" gradientUnits="userSpaceOnUse">
<stop stop-color="#FFC700"/>
<stop offset="1" stop-color="#F54646"/>
</linearGradient>
<linearGradient id="paint1_linear_1_1654" x1="4.08981" y1="3.95474" x2="16.5421" y2="21.7913" gradientUnits="userSpaceOnUse">
<stop stop-color="#3093EE"/>
<stop offset="1" stop-color="#531ACB"/>
</linearGradient>
<clipPath id="clip0_1_1654">
<rect width="24" height="23" fill="white" transform="translate(0 0.5)"/>
</clipPath>
</defs>
</svg>
