<svg id="Layer_1" data-name="Layer 1" xmlns="http://www.w3.org/2000/svg" xmlns:xlink="http://www.w3.org/1999/xlink" viewBox="0 0 477.8 477.8">
  <defs>
    <style>
      .cls-1 {
        fill: url(#Безымянный_градиент);
      }

      .cls-2 {
        fill: url(#Безымянный_градиент_2);
      }

      .cls-3 {
        fill: url(#Безымянный_градиент_3);
      }

      .cls-4 {
        fill: url(#Безымянный_градиент_4);
      }

      .cls-5 {
        fill: url(#Безымянный_градиент_5);
      }

      .cls-6 {
        fill: url(#Безымянный_градиент_6);
      }

      .cls-7 {
        fill: url(#Безымянный_градиент_7);
      }

      .cls-8 {
        fill: url(#Безымянный_градиент_8);
      }

      .cls-9 {
        fill: url(#Безымянный_градиент_9);
      }

      .cls-10 {
        fill: url(#Безымянный_градиент_10);
      }

      .cls-11 {
        fill: url(#Безымянный_градиент_11);
      }
    </style>
    <linearGradient id="Безымянный_градиент" data-name="Безымянный градиент" x1="-28.34" y1="264.06" x2="292.66" y2="16.06" gradientTransform="matrix(1, 0, 0, -1, 0, 512)" gradientUnits="userSpaceOnUse">
      <stop offset="0" stop-color="#498fee"/>
      <stop offset="1" stop-color="#531fca"/>
    </linearGradient>
    <linearGradient id="Безымянный_градиент_2" data-name="Безымянный градиент 2" x1="142.02" y1="484.57" x2="463.02" y2="236.57" xlink:href="#Безымянный_градиент"/>
    <linearGradient id="Безымянный_градиент_3" data-name="Безымянный градиент 3" x1="192.08" y1="549.37" x2="513.08" y2="301.37" xlink:href="#Безымянный_градиент"/>
    <linearGradient id="Безымянный_градиент_4" data-name="Безымянный градиент 4" x1="-38.19" y1="251.31" x2="282.81" y2="3.31" xlink:href="#Безымянный_градиент"/>
    <linearGradient id="Безымянный_градиент_5" data-name="Безымянный градиент 5" x1="182.23" y1="536.61" x2="503.23" y2="288.61" xlink:href="#Безымянный_градиент"/>
    <linearGradient id="Безымянный_градиент_6" data-name="Безымянный градиент 6" x1="41.22" y1="354.1" x2="362.22" y2="106.1" xlink:href="#Безымянный_градиент"/>
    <linearGradient id="Безымянный_градиент_7" data-name="Безымянный градиент 7" x1="76.93" y1="400.33" x2="397.93" y2="152.33" xlink:href="#Безымянный_градиент"/>
    <linearGradient id="Безымянный_градиент_8" data-name="Безымянный градиент 8" x1="11.87" y1="316.11" x2="332.87" y2="68.11" xlink:href="#Безымянный_градиент"/>
    <linearGradient id="Безымянный_градиент_9" data-name="Безымянный градиент 9" x1="112.63" y1="446.53" x2="433.63" y2="198.53" xlink:href="#Безымянный_градиент"/>
    <linearGradient id="Безымянный_градиент_10" data-name="Безымянный градиент 10" x1="35.37" y1="346.53" x2="356.37" y2="98.53" xlink:href="#Безымянный_градиент"/>
    <linearGradient id="Безымянный_градиент_11" data-name="Безымянный градиент 11" x1="78.27" y1="402.06" x2="399.27" y2="154.06" xlink:href="#Безымянный_градиент"/>
  </defs>
  <g>
    <path class="cls-1" d="M86.8,256H17.1A237.28,237.28,0,0,0,82.8,414.7l49.3-49.3A169,169,0,0,1,86.8,256Z" transform="translate(-17.1 -11.1)"/>
    <path class="cls-2" d="M250,80.8V11.1A237.28,237.28,0,0,0,91.3,76.8l49.3,49.3A169,169,0,0,1,250,80.8Z" transform="translate(-17.1 -11.1)"/>
    <path class="cls-3" d="M420.7,76.8A236.8,236.8,0,0,0,262,11.1V80.8a168.58,168.58,0,0,1,109.4,45.4Z" transform="translate(-17.1 -11.1)"/>
    <path class="cls-4" d="M91.3,423.2A236.8,236.8,0,0,0,250,488.9V419.2a168.58,168.58,0,0,1-109.4-45.4Z" transform="translate(-17.1 -11.1)"/>
    <path class="cls-5" d="M425.2,244h69.7A237.28,237.28,0,0,0,429.2,85.3l-49.3,49.3A169,169,0,0,1,425.2,244Z" transform="translate(-17.1 -11.1)"/>
    <path class="cls-6" d="M132.2,134.6,82.8,85.3A236.8,236.8,0,0,0,17.1,244H86.8A168.58,168.58,0,0,1,132.2,134.6Z" transform="translate(-17.1 -11.1)"/>
    <path class="cls-7" d="M413.3,250c0-86.8-70.6-157.3-157.3-157.3S98.7,163.2,98.7,250,169.2,407.3,256,407.3,413.3,336.8,413.3,250Zm-59.8,32.2a60.63,60.63,0,0,1-57.2,40.3h0A60.29,60.29,0,0,1,269,316l18.7,34.5a5.93,5.93,0,0,1-2.4,8.1,6.07,6.07,0,0,1-5.1.3,65,65,0,0,0-48.3,0,6.05,6.05,0,0,1-7.8-3.3,5.73,5.73,0,0,1,.3-5.1L243,316a60.78,60.78,0,1,1-54.6-108.6,71.75,71.75,0,0,1,6.9-3c-.1-1-.1-2.1-.1-3.1a60.7,60.7,0,1,1,121.4,0c0,1,0,2.1-.1,3.1A60.94,60.94,0,0,1,353.5,282.2Z" transform="translate(-17.1 -11.1)"/>
    <path class="cls-8" d="M262,419.2v69.7a237.28,237.28,0,0,0,158.7-65.7l-49.3-49.3A169,169,0,0,1,262,419.2Z" transform="translate(-17.1 -11.1)"/>
    <path class="cls-9" d="M379.8,365.4l49.3,49.3A236.8,236.8,0,0,0,494.8,256H425.1A168,168,0,0,1,379.8,365.4Z" transform="translate(-17.1 -11.1)"/>
    <path class="cls-10" d="M241.7,343.6a75.88,75.88,0,0,1,28.5,0L256,317.2Z" transform="translate(-17.1 -11.1)"/>
    <path class="cls-11" d="M308.7,214.6h0a6,6,0,0,1-4.4-6.6,48.74,48.74,0,0,0-96.6-13,47.89,47.89,0,0,0,0,13.1,6,6,0,0,1-4.4,6.6,48.77,48.77,0,1,0,48.3,80.2,6,6,0,0,1,8.5-.3l.3.3a48.76,48.76,0,1,0,48.3-80.3Z" transform="translate(-17.1 -11.1)"/>
  </g>
</svg>
