<svg id="Слой_1" data-name="Слой 1" xmlns="http://www.w3.org/2000/svg" viewBox="0 0 594.29 368.4">
  <defs>
    <style>
      .cls-1 {
        fill: #7d848e;
      }

      .cls-2 {
        fill: #505a70;
      }

      .cls-3 {
        fill: #626b7c;
      }
    </style>
  </defs>
  <rect id="rect19" class="cls-1" x="216.45" y="39.54" width="160.94" height="288.76"/>
  <path class="cls-2" d="M229.9,185.91A183.75,183.75,0,0,1,300.64,41.54C220.84-21.38,105.14-7.7,42.23,72.1S-7,267.6,72.8,330.51a184,184,0,0,0,227.84,0A183.34,183.34,0,0,1,229.9,185.91Z" transform="translate(-2.71 -2)"/>
  <path id="path22" class="cls-3" d="M597,185.91c.52,101.37-81.24,184-182.61,184.49a183.54,183.54,0,0,1-113.75-38.77c79.73-65.15,91.55-182.6,26.41-262.34A180.69,180.69,0,0,0,299.3,41.54C378.71-21.27,494-7.8,556.81,71.62a183.35,183.35,0,0,1,39.52,114.29Z" transform="translate(-2.71 -2)"/>
</svg>
