<svg width="26" height="24" viewBox="0 0 26 24" fill="none" xmlns="http://www.w3.org/2000/svg">
<path d="M2.88889 1.9375C1.29549 1.9375 0 3.22676 0 4.8125V6.25H26V4.8125C26 3.22676 24.7045 1.9375 23.1111 1.9375H2.88889ZM26 10.5625H0V19.1875C0 20.7732 1.29549 22.0625 2.88889 22.0625H23.1111C24.7045 22.0625 26 20.7732 26 19.1875V10.5625ZM5.05556 16.3125H7.94444C8.34167 16.3125 8.66667 16.6359 8.66667 17.0312C8.66667 17.4266 8.34167 17.75 7.94444 17.75H5.05556C4.65833 17.75 4.33333 17.4266 4.33333 17.0312C4.33333 16.6359 4.65833 16.3125 5.05556 16.3125ZM10.1111 17.0312C10.1111 16.6359 10.4361 16.3125 10.8333 16.3125H16.6111C17.0083 16.3125 17.3333 16.6359 17.3333 17.0312C17.3333 17.4266 17.0083 17.75 16.6111 17.75H10.8333C10.4361 17.75 10.1111 17.4266 10.1111 17.0312Z" fill="black"/>
<path d="M2.88889 1.9375C1.29549 1.9375 0 3.22676 0 4.8125V6.25H26V4.8125C26 3.22676 24.7045 1.9375 23.1111 1.9375H2.88889ZM26 10.5625H0V19.1875C0 20.7732 1.29549 22.0625 2.88889 22.0625H23.1111C24.7045 22.0625 26 20.7732 26 19.1875V10.5625ZM5.05556 16.3125H7.94444C8.34167 16.3125 8.66667 16.6359 8.66667 17.0312C8.66667 17.4266 8.34167 17.75 7.94444 17.75H5.05556C4.65833 17.75 4.33333 17.4266 4.33333 17.0312C4.33333 16.6359 4.65833 16.3125 5.05556 16.3125ZM10.1111 17.0312C10.1111 16.6359 10.4361 16.3125 10.8333 16.3125H16.6111C17.0083 16.3125 17.3333 16.6359 17.3333 17.0312C17.3333 17.4266 17.0083 17.75 16.6111 17.75H10.8333C10.4361 17.75 10.1111 17.4266 10.1111 17.0312Z" fill="url(#paint0_linear_1_1661)"/>
<path d="M2.88889 1.9375C1.29549 1.9375 0 3.22676 0 4.8125V6.25H26V4.8125C26 3.22676 24.7045 1.9375 23.1111 1.9375H2.88889ZM26 10.5625H0V19.1875C0 20.7732 1.29549 22.0625 2.88889 22.0625H23.1111C24.7045 22.0625 26 20.7732 26 19.1875V10.5625ZM5.05556 16.3125H7.94444C8.34167 16.3125 8.66667 16.6359 8.66667 17.0312C8.66667 17.4266 8.34167 17.75 7.94444 17.75H5.05556C4.65833 17.75 4.33333 17.4266 4.33333 17.0312C4.33333 16.6359 4.65833 16.3125 5.05556 16.3125ZM10.1111 17.0312C10.1111 16.6359 10.4361 16.3125 10.8333 16.3125H16.6111C17.0083 16.3125 17.3333 16.6359 17.3333 17.0312C17.3333 17.4266 17.0083 17.75 16.6111 17.75H10.8333C10.4361 17.75 10.1111 17.4266 10.1111 17.0312Z" fill="url(#paint1_linear_1_1661)"/>
<defs>
<linearGradient id="paint0_linear_1_1661" x1="0" y1="12" x2="26" y2="12" gradientUnits="userSpaceOnUse">
<stop stop-color="#FFC700"/>
<stop offset="1" stop-color="#F54646"/>
</linearGradient>
<linearGradient id="paint1_linear_1_1661" x1="4.42976" y1="3.95468" x2="16.5102" y2="22.6975" gradientUnits="userSpaceOnUse">
<stop stop-color="#3093EE"/>
<stop offset="1" stop-color="#531ACB"/>
</linearGradient>
</defs>
</svg>
