<svg id="Слой_1" data-name="Слой 1" xmlns="http://www.w3.org/2000/svg" viewBox="0 0 1013.63 356.1">
  <defs>
    <style>
      .cls-1 {
        fill: #626b7c;
      }
    </style>
  </defs>
  <g>
    <path class="cls-1" d="M412.76,350.29a15.71,15.71,0,0,1-15.71-15.71V130.35A84,84,0,0,1,481,46.43h60.31c46,.43,83.32,38.06,83.41,83.9v43.46a84,84,0,0,1-83.94,83.93H455.57a15.71,15.71,0,1,1,0-31.42h85.08a52.59,52.59,0,0,0,52.61-52.51V130.35a52.79,52.79,0,0,0-52.13-52.5H481a52.56,52.56,0,0,0-52.5,52.5V334.58A15.71,15.71,0,0,1,412.76,350.29Z" transform="translate(0 -2.25)"/>
    <path class="cls-1" d="M679.61,258.36a15.71,15.71,0,0,1-15.71-15.71V90.08a12.14,12.14,0,0,0-12.12-12H625.62a15.71,15.71,0,0,1,0-31.42h26.16A43.62,43.62,0,0,1,695.32,90V242.65A15.71,15.71,0,0,1,679.61,258.36Z" transform="translate(0 -2.25)"/>
    <path class="cls-1" d="M674.13,38.73l-12-11.8a7.48,7.48,0,0,1,0-10.55h0L674,4.47a7.39,7.39,0,0,1,10.44-.11l.11.11h0l11.59,11.91a7.7,7.7,0,0,1,0,10.55l-11.8,11.8a7.48,7.48,0,0,1-10.55,0" transform="translate(0 -2.25)"/>
    <path class="cls-1" d="M865.82,159h-.19a35.46,35.46,0,0,1-25.21-10.59L779.84,87.8a34.69,34.69,0,0,0-24.43-10H729.8a15.71,15.71,0,1,1,0-31.42h25.62A66.07,66.07,0,0,1,802,65.48l60.73,60.73a4.17,4.17,0,0,0,3.13,1.33,4.21,4.21,0,0,0,3-1.25l60.6-60.7a65.73,65.73,0,0,1,46.65-19.27h21.09a15.72,15.72,0,0,1,0,31.43H976.09a34.4,34.4,0,0,0-24.45,10.08l-60.47,60.58A35.67,35.67,0,0,1,865.82,159Z" transform="translate(0 -2.25)"/>
    <path class="cls-1" d="M755.49,257.09H729.8a15.71,15.71,0,1,1,0-31.42h25.67a34.77,34.77,0,0,0,24.39-10.07l61-60.84a36.09,36.09,0,0,1,50.61,0l60.85,60.43a34.21,34.21,0,0,0,24.16,10.1h21.39a15.71,15.71,0,1,1,0,31.42H976.83a66.39,66.39,0,0,1-46.67-19.29L869.4,177a4.53,4.53,0,0,0-6.35,0l-61,60.8A66.41,66.41,0,0,1,755.49,257.09Z" transform="translate(0 -2.25)"/>
    <path class="cls-1" d="M258.09,280.18a48.72,48.72,0,0,1-33.74-13.71l-50.08-49.76a9.38,9.38,0,0,0-13,0l-50.4,49.76a48.25,48.25,0,0,1-34.16,13.81H66.2l63.26,63.26a50.28,50.28,0,0,0,71.12.15l.15-.15h0L264,280.28Z" transform="translate(0 -2.25)"/>
    <path class="cls-1" d="M76.74,104.1a48.8,48.8,0,0,1,33.84,14.76l50.51,49.45a9.07,9.07,0,0,0,12.82,0l0,0h0l49.34-49.45a48.09,48.09,0,0,1,34.06-14.23h6.11L200.2,41.37a50.51,50.51,0,0,0-71.27,0L65.67,104.63Z" transform="translate(0 -2.25)"/>
    <path class="cls-1" d="M316.39,156.71l-38-37.85a7.88,7.88,0,0,1-2.74,0H258.61a34.08,34.08,0,0,0-23.72,10.55l-50,49.76a23.81,23.81,0,0,1-33.69,0l0,0h0l-49.88-50a35,35,0,0,0-24.56-10.34H55.65a9.74,9.74,0,0,1-2.53,0L14.74,157.24a50.19,50.19,0,0,0-.08,71l.08.08h0l37.64,38.17a7.63,7.63,0,0,1,2.53-.53H76a34.47,34.47,0,0,0,24.46-10l50.08-50.19a24.37,24.37,0,0,1,34.06,0l50.29,50.19a34,34,0,0,0,24,9.91h17a7.76,7.76,0,0,1,2.74.53l38.28-38.17a50.4,50.4,0,0,0,0-71.17h0" transform="translate(0 -2.25)"/>
    <path class="cls-1" d="M464.53,317.19a45.87,45.87,0,0,0-9.39,1.37V331a22,22,0,0,0,7.28,1.26c6.22,0,9.27-2.11,9.27-7.59s-2.42-7.48-7.16-7.48M453,340.28V315.71h1.69v1.05a53.22,53.22,0,0,1,9.81-1.58,8.54,8.54,0,0,1,9.17,7.8,4.8,4.8,0,0,1,0,1.69,8.44,8.44,0,0,1-3.9,7.91,15.94,15.94,0,0,1-7.28,1.58A26,26,0,0,1,455,333v7.28Z" transform="translate(0 -2.25)"/>
    <path class="cls-1" d="M489.51,317.19c-6.22,0-9,1.89-9,7.38s2.74,7.69,9,7.69,8.54-1.9,8.54-7.48S495.73,317.19,489.51,317.19Zm8,15.07a13.21,13.21,0,0,1-8,1.9,13.49,13.49,0,0,1-8-1.9,10.54,10.54,0,0,1,0-14.76h0a12.86,12.86,0,0,1,8-2,12.56,12.56,0,0,1,8,2,10.55,10.55,0,0,1,0,14.66Z" transform="translate(0 -2.25)"/>
    <path class="cls-1" d="M527.15,333.63l-7-14.44h0l-6.85,14.86h-1.9l-7.38-17.92h2.32l6.12,15.08h0l7.06-15.5h1.9l6.85,15.08h0l6-15.08h2.32l-7.48,17.92Z" transform="translate(0 -2.25)"/>
    <path class="cls-1" d="M549.82,317.08a7.39,7.39,0,0,0-8.5,6.06c0,.09,0,.18,0,.27h16.24C557.73,319.19,555.73,317.08,549.82,317.08Zm0,17.08a11.3,11.3,0,0,1-7.06-2,9.27,9.27,0,0,1-2.85-7.38,9.83,9.83,0,0,1,3.37-7.81,12.63,12.63,0,0,1,7-1.79,13.5,13.5,0,0,1,7.28,1.69,9.4,9.4,0,0,1,3.06,8.54H541.7c0,3.69,1.27,7,8.54,7a45.88,45.88,0,0,0,9.28-.95v1.79a55.93,55.93,0,0,1-9.38,1.16" transform="translate(0 -2.25)"/>
    <path class="cls-1" d="M566.16,333.63V315.71h2.22v1.05a29.23,29.23,0,0,1,8.54-1.58h0v2h0a28.46,28.46,0,0,0-8.54,1.37v15.07Z" transform="translate(0 -2.25)"/>
    <path class="cls-1" d="M589.46,317.08a7.39,7.39,0,0,0-8.5,6.06,2.51,2.51,0,0,1,0,.27h16.24C597.37,319.19,595.37,317.08,589.46,317.08Zm0,17.08a11.25,11.25,0,0,1-7.48-2.11,9.29,9.29,0,0,1-2.85-7.38,9.93,9.93,0,0,1,3.38-7.8,12.49,12.49,0,0,1,7-1.79,13.49,13.49,0,0,1,7.28,1.68,9.41,9.41,0,0,1,3.06,8.54H581.35c0,3.69,1.37,7.07,8.54,7.07a54.51,54.51,0,0,0,9.27-1.06v1.9a55.79,55.79,0,0,1-9.38,1.06" transform="translate(0 -2.25)"/>
    <path class="cls-1" d="M622.78,318.35a18.43,18.43,0,0,0-7.17-1.16c-6.22,0-9.28,2-9.28,7.59s2.53,7.38,7.17,7.38a44.63,44.63,0,0,0,9.28-1.37Zm0,15.28v-1.05a50.47,50.47,0,0,1-9.7,1.58,8.11,8.11,0,0,1-9.17-9.38,8.65,8.65,0,0,1,4-8,14.43,14.43,0,0,1,7.27-1.58,25.34,25.34,0,0,1,7.38,1.16V307.8H625v25.52Z" transform="translate(0 -2.25)"/>
    <path class="cls-1" d="M655.78,317.19a47.19,47.19,0,0,0-9.38,1.37V331a22.36,22.36,0,0,0,7.38,1.26c6.22,0,9.17-2.11,9.17-7.59s-2.42-7.48-7.17-7.48m5.38,15.39a15.61,15.61,0,0,1-7.17,1.58,22.8,22.8,0,0,1-8-1.37v.84h-1.37v-25h2v8.54a48.75,48.75,0,0,1,9.59-1.59,9.89,9.89,0,0,1,6.33,1.9,9.07,9.07,0,0,1,2.85,7.59A8.55,8.55,0,0,1,661.16,332.58Z" transform="translate(0 -2.25)"/>
    <path class="cls-1" d="M668,340.28v-2h2.64a5.48,5.48,0,0,0,5.69-3.58l.64-1.48-9.81-17.71h2.42l8.54,15.5h0l7.6-15.5h2.53l-10.55,20.24a7.26,7.26,0,0,1-7.48,4.85h-2.64" transform="translate(0 -2.25)"/>
    <path class="cls-1" d="M717.25,323.41h-7.06v6.32h7.17c4.74,0,6.53,0,6.53-3.16s-2.53-3.16-6.64-3.16M716,312.86h-5.8v6.33H716c4.74,0,6.64-.63,6.64-3.27s-2.43-3.16-6.64-3.16m10.54,18.76a21,21,0,0,1-11.28,1.69H704.7V309.28h10.55a19.67,19.67,0,0,1,10.54,1.58,5.8,5.8,0,0,1,1.48,8,6,6,0,0,1-2.85,2.22h0a5.48,5.48,0,0,1,5.17,5.78v0a5.17,5.17,0,0,1-2.64,4.95" transform="translate(0 -2.25)"/>
    <path class="cls-1" d="M750.78,326.15h-6.54c-3.69,0-5,.74-5,2.32s1.05,2.53,3.9,2.53a38.27,38.27,0,0,0,7.59-1.16Zm1,7.48v-1.05a38.37,38.37,0,0,1-9.81,1.58,8.1,8.1,0,0,1-5.37-1.37,5.58,5.58,0,0,1-.66-7.88l0,0a6,6,0,0,1,1.58-1.26,18.2,18.2,0,0,1,6.75-.95h6.54c0-2.85-1.79-3.69-6.85-3.69a35.18,35.18,0,0,0-6.65,0v-3.69H745a15.07,15.07,0,0,1,8.54,1.68,6.65,6.65,0,0,1,2.53,6.12v10.54Z" transform="translate(0 -2.25)"/>
    <path class="cls-1" d="M779.35,333.63v-9.91c0-3.27-1.79-4.43-4.74-4.43a44.64,44.64,0,0,0-7.38,1.06v13.28h-5.17V315.71h4.11v1.05a48,48,0,0,1,9.6-1.58,8,8,0,0,1,6.11,1.9,6.88,6.88,0,0,1,2,5.59v10.54Z" transform="translate(0 -2.25)"/>
    <path class="cls-1" d="M798.54,334.16a10.56,10.56,0,0,1-6.75-1.79,9.5,9.5,0,0,1-2.74-7.7,8.44,8.44,0,0,1,3.59-7.7,14,14,0,0,1,7.9-1.79H807v4h-5.8c-4.75,0-7.07,1.37-7.07,5.59s1.69,5.58,5.7,5.58a46,46,0,0,0,7.59-.63v3.59a39.86,39.86,0,0,1-8.54,1.26" transform="translate(0 -2.25)"/>
    <path class="cls-1" d="M822.05,319.19c-4.74,0-6.85,1.47-6.85,5.59s2,5.9,6.85,5.9,6.86-1.58,6.86-5.69S826.9,319.19,822.05,319.19Zm8.54,13.39a21.06,21.06,0,0,1-17,0,10.56,10.56,0,0,1-.85-14.45,3.39,3.39,0,0,1,.85-.84,21.06,21.06,0,0,1,17,0,8.34,8.34,0,0,1,3.38,7.59,8.66,8.66,0,0,1-3.27,7.28Z" transform="translate(0 -2.25)"/>
    <path class="cls-1" d="M863.07,334.16a12.84,12.84,0,0,1-8.44-2.53,12.22,12.22,0,0,1-3.9-10.54,12,12,0,0,1,5-10.55,18.71,18.71,0,0,1,10.54-2.32,60.85,60.85,0,0,1,8.54,0v4.43h-8.54c-7,0-9.91,2.64-9.91,8.44s2.74,8.54,7.91,8.54a63.49,63.49,0,0,0,10.54-1.37v4.32A63.47,63.47,0,0,1,863,334.05" transform="translate(0 -2.25)"/>
    <path class="cls-1" d="M889.64,318.45c-4.22,0-5.8,1.37-6.12,4.11h12.13C895.54,319.19,893.85,318.45,889.64,318.45Zm-1.06,15.71a10.57,10.57,0,0,1-7.59-2,8.55,8.55,0,0,1-3-7.49,9.08,9.08,0,0,1,3.37-7.59,17.91,17.91,0,0,1,15.71,0,9.79,9.79,0,0,1,3.16,8.54H883.63c0,2.74,1.47,4.53,6.64,4.53a70.29,70.29,0,0,0,9.49-.95v3.59A74.82,74.82,0,0,1,889.21,334" transform="translate(0 -2.25)"/>
    <path class="cls-1" d="M923,333.63v-9.91c0-3.27-1.68-4.43-4.64-4.43a42.9,42.9,0,0,0-7.38,1.06v13.28h-5.06V315.71h3.8v1.05a50.47,50.47,0,0,1,9.7-1.58,8,8,0,0,1,6.11,1.9,6.85,6.85,0,0,1,2,5.59v10.54Z" transform="translate(0 -2.25)"/>
    <path class="cls-1" d="M942.25,334.16a6.55,6.55,0,0,1-5.8-2.53,8.83,8.83,0,0,1-1.37-5.48v-7h-3.59v-3.8H935v-5.48h4.54v5.48h7.06v3.8h-7.06v5.69a7.92,7.92,0,0,0,.52,3.48,3.16,3.16,0,0,0,3.27,1.58h3.59v3.59a30.37,30.37,0,0,1-5.28.74" transform="translate(0 -2.25)"/>
    <path class="cls-1" d="M951.84,333.63V315.71h4.22v1.05a29.23,29.23,0,0,1,8.54-1.58h.63v4h-1.79a26.7,26.7,0,0,0-7.06.95v13.28Z" transform="translate(0 -2.25)"/>
    <path class="cls-1" d="M984.21,326.15h-6.54c-3.58,0-4.85.74-4.85,2.32s.95,2.53,3.8,2.53a38.16,38.16,0,0,0,7.59-1.16Zm1,7.48v-1.05a38.29,38.29,0,0,1-9.8,1.58,8.75,8.75,0,0,1-5.38-1.37,5.59,5.59,0,0,1-.66-7.88l0,0,1.58-1.26a18.76,18.76,0,0,1,6.85-.95h6.54c0-2.85-1.9-3.69-7-3.69a35.07,35.07,0,0,0-6.64,0v-3.69h7.8a14.64,14.64,0,0,1,8.44,1.68,6.67,6.67,0,0,1,2.53,6.12v10.54Z" transform="translate(0 -2.25)"/>
    <path class="cls-1" d="M995.7,308.65h5.06v25.51H995.7Z" transform="translate(0 -2.25)"/>
  </g>
</svg>
