<?xml version="1.0" encoding="UTF-8"?>
<svg id="_Слой_1" data-name="Слой 1" xmlns="http://www.w3.org/2000/svg" xmlns:xlink="http://www.w3.org/1999/xlink" viewBox="0 0 22.22 22.22">
  <defs>
    <style>
      .cls-1 {
        fill: url(#_Безымянный_градиент_2);
        stroke-width: 0px;
      }
    </style>
    <linearGradient id="_Безымянный_градиент_2" data-name="Безымянный градиент 2" x1="0" y1="11.11" x2="22.22" y2="11.11" gradientUnits="userSpaceOnUse">
      <stop offset="0" stop-color="#3093ee"/>
      <stop offset="1" stop-color="#531acb"/>
    </linearGradient>
  </defs>
  <path class="cls-1" d="M11.11,0C4.98,0,0,4.98,0,11.11s4.98,11.11,11.11,11.11,11.11-4.98,11.11-11.11S17.24,0,11.11,0ZM11.82,3.61l2.86-1.54c1.58.63,2.96,1.65,4.01,2.96l-.68,3.14-2.18,1.07-4.01-2.92v-2.71ZM7.57,2.07l2.86,1.54v2.71l-4.01,2.92-2.19-1.07-.68-3.16c1.05-1.3,2.44-2.32,4.02-2.95ZM3.1,16.6c-.91-1.32-1.5-2.87-1.66-4.55l2.35-2.55,2.14,1.05,1.62,4.59-1.37,1.64-3.09-.17ZM13.59,20.5c-.79.21-1.62.33-2.48.33-1.04,0-2.03-.17-2.97-.47l-.87-2.72,1.39-1.67h4.91l1.37,1.62-1.35,2.91ZM16.02,16.73l-1.34-1.59,1.64-4.59,2.13-1.05,2.34,2.55c-.14,1.45-.61,2.79-1.31,3.99l-3.45.68Z"/>
</svg>