<svg id="Слой_1" data-name="Слой 1" xmlns="http://www.w3.org/2000/svg" viewBox="0 0 1199.48 365.9">
  <defs>
    <style>
      .cls-1 {
        fill: #626b7c;
      }
    </style>
  </defs>
  <g id="layer101">
    <path class="cls-1" d="M69,185.26C29.53,85.71-1.3,2.39.32.23,2.48-1.39,66.86,8.35,143.15,21.87L282.73,47.3,319,83.55l35.7,36.78L254.05,243.14C198.33,310.77,150.18,366,146.93,366,143.69,366.49,109.06,284.8,69,185.26Zm84.4,36.24c4.87-39.49,8.11-72.49,7-73.57-1.08-.54-22.72-18.4-48.15-39-72-59-67.09-56.26-58.43-34.62,4.33,10.28,26,64.38,48.15,120.1,22.18,55.19,40.58,100.09,41.12,99.55S148.56,261,153.43,221.5Zm84.93-3.78C273,176.06,300,141.43,299.5,140.35c-1.62-1.62-107.12,16.23-110.37,18.4-2.7,1.62-16.77,108.74-17.31,126.05,0,7,1.08,11.9,2.16,10.82S204.28,259.37,238.36,217.72Zm32.47-100.09,37.33-7L291.92,94.37c-18.39-18.4-20-17.86-60.59,17.85-14.06,12.44-16.23,16.23-8.11,14.07C229.17,125.2,250.81,120.88,270.83,117.63Zm-60.6-22.72c18.4-15.69,31.38-28.68,28.68-29.76C221.05,60.82,77.68,36.48,74.44,37.56c-4.33,1.62,91.43,84.4,98.46,84.94C174.53,123,191.3,110.6,210.23,94.91Z" transform="translate(-0.26 -0.05)"/>
    <path class="cls-1" d="M1131.57,215l-64.38-75.74-1.62,67.63c-1.08,63.29-2.16,67.62-11.9,67.62-10.28,0-10.82-4.33-10.82-100.08,0-55.19,1.08-100.09,2.16-100.09,1.63,0,31.38,33,66.55,73.58l63.84,73.57L1177,156c1.08-61.13,2.16-65.46,11.9-65.46,10.28,0,10.82,4.33,10.82,100.09,0,55.18-.54,100.08-1.62,100.08S1167.28,256.67,1131.57,215Z" transform="translate(-0.26 -0.05)"/>
    <path class="cls-1" d="M469.38,209.6c0-61.13.54-64.92,10.82-64.92S491,148.47,491,209.6s-.54,64.92-10.82,64.92S469.38,270.74,469.38,209.6Z" transform="translate(-0.26 -0.05)"/>
    <path class="cls-1" d="M501.84,209.6c0-61.13.54-64.92,10.82-64.92s10.82,3.79,10.82,64.92-.54,64.92-10.82,64.92S501.84,270.74,501.84,209.6Z" transform="translate(-0.26 -0.05)"/>
    <path class="cls-1" d="M615.45,182.55v-92h62.76c34.08,0,67.08,2.7,73,5.41,5.41,3.25,14.07,13,18.4,21.64,13,24.89,10.28,46-8.12,67.09l-16.77,18.93,16.77,32.46c8.66,17.85,16.23,34.08,16.23,35.71s-5.41,2.7-11.9,2.7c-9.74,0-16.77-8.11-31.38-35.16-17.85-33.55-20-35.17-39-35.17H675v35.17c0,31.38-1.08,35.16-10.82,35.16s-10.82-3.78-10.82-45.44V184.17l41.12-2.7c42.2-2.71,51.93-8.12,59-29.76,2.16-9.19-.54-15.69-10.28-26-12.45-12.44-17.86-13.52-60-13.52h-46v81.15c0,77.37-.54,81.15-10.82,81.15S615.45,270.74,615.45,182.55Z" transform="translate(-0.26 -0.05)"/>
    <path class="cls-1" d="M877.84,266.41c-56.27-20-78.45-88.73-44.36-138,16.23-24.35,43.82-37.87,77.36-37.87,67.09,0,109.29,70.87,79.53,133.63C973.06,261.54,920,281.56,877.84,266.41Zm75.74-35.17c29.76-28.13,30.84-70.87,2.17-97.92-43.29-40.58-113.62-11.9-113.08,45.44.55,27.6,9.2,44.37,30.3,58.43C894.07,251.8,935.19,248.55,953.58,231.24Z" transform="translate(-0.26 -0.05)"/>
    <path class="cls-1" d="M896.78,180.39c0-11.36,2.7-14.07,14.06-14.07s13.53,2.16,11.9,12.44c-1.08,7.58-6,12.45-13.52,13.53C898.94,193.91,896.78,191.75,896.78,180.39Z" transform="translate(-0.26 -0.05)"/>
    <path class="cls-1" d="M1075.31,236.65c0-34.08,1.08-37.87,10.82-37.87s10.82,3.79,10.82,37.87-1.08,37.87-10.82,37.87S1075.31,270.74,1075.31,236.65Z" transform="translate(-0.26 -0.05)"/>
    <path class="cls-1" d="M415.28,101.4c0-10.28,3.78-10.82,81.15-10.82s81.15.54,81.15,10.82-3.79,10.82-81.15,10.82S415.28,111.68,415.28,101.4Z" transform="translate(-0.26 -0.05)"/>
  </g>
</svg>
