<svg width="52" height="52" viewBox="0 0 52 52" fill="none" xmlns="http://www.w3.org/2000/svg">
<rect width="52" height="52" rx="4" fill="#1A2338"/>
<path d="M26 39C23.4289 39 20.9154 38.2375 18.7776 36.8091C16.6398 35.3806 14.9735 33.3503 13.9896 30.9749C13.0056 28.5994 12.7482 25.9856 13.2498 23.4638C13.7514 20.9421 14.9895 18.6257 16.8076 16.8076C19.2456 14.3696 22.5522 13 26 13C29.4478 13 32.7544 14.3696 35.1924 16.8076C37.6304 19.2456 39 22.5522 39 26C39 29.4478 37.6304 32.7544 35.1924 35.1924C33.988 36.4033 32.5555 37.3633 30.9776 38.0169C29.3997 38.6705 27.7079 39.0046 26 39ZM26 14.7334C19.7876 14.7334 14.7334 19.7876 14.7334 26C14.7334 32.2124 19.7876 37.2666 26 37.2666C32.2124 37.2666 37.2666 32.2124 37.2666 26C37.2666 19.7876 32.2124 14.7334 26 14.7334Z" fill="white"/>
<path d="M31.4539 29.2137L26 23.7599L20.5462 29.2137L19.3206 27.9881L26 21.3086L32.6795 27.9881L31.4539 29.2137Z" fill="white"/>
</svg>
