<svg id="Слой_1" data-name="Слой 1" xmlns="http://www.w3.org/2000/svg" viewBox="0 0 1119.25 366.48">
  <defs>
    <style>
      .cls-1 {
        fill: #626b7c;
      }
    </style>
  </defs>
  <g id="g4158">
    <polygon id="polygon9" class="cls-1" points="479.89 359.25 388.63 359.25 445.81 6.64 536.78 6.64 479.89 359.25"/>
    <path id="path11" class="cls-1" d="M810.83,15.31A222.07,222.07,0,0,0,729.39,0c-90.1,0-153.34,48.23-153.92,117-.57,50,45,78.84,81.44,95.87S704,241.75,704,256.48c0,23.68-28.88,34.65-54.87,34.65a183.24,183.24,0,0,1-86.63-18.77L550.35,266l-12.71,82a277.62,277.62,0,0,0,101.61,18.46c95.59,0,158-47.65,158.83-121.87,0-40.72-24-70.75-76.81-95.88-31.77-16.46-49.67-27.43-49.67-43.6s14.15-32.63,52-32.63a156.77,156.77,0,0,1,67.86,13.57l8.09,3.75,12.7-75.95Z" transform="translate(0 0)"/>
    <path id="path13" class="cls-1" d="M931.54,235.36c7.8-20.22,36.39-98.19,36.39-98.19l12.42-33.5L986.41,134l23.1,102.23ZM1044.46,7.8H974a44.46,44.46,0,0,0-45.63,28.88L792.36,361h95.3s16.17-43.61,19.06-52.85h115.53c2.31,12.13,11,52.85,11,52.85h86L1044.74,6.64Z" transform="translate(0 0)"/>
    <path id="path15" class="cls-1" d="M312.68,6.64,223.16,247.2l-9.82-49.08A268.87,268.87,0,0,0,87.43,51.4l81.73,307.85h98.18L411.73,6.93Z" transform="translate(0 0)"/>
    <path id="path17" class="cls-1" d="M147.25,6.64H0v6.93A304.1,304.1,0,0,1,219.76,198.39l-32-162.58A37.83,37.83,0,0,0,147.25,6.93Z" transform="translate(0 0)"/>
  </g>
</svg>
